<?xml version="1.0" standalone="no"?>
<!DOCTYPE svg PUBLIC "-//W3C//DTD SVG 20010904//EN"
 "http://www.w3.org/TR/2001/REC-SVG-20010904/DTD/svg10.dtd">
<svg version="1.0" xmlns="http://www.w3.org/2000/svg"
 width="224.000000pt" height="342.000000pt" viewBox="0 0 224.000000 342.000000"
 preserveAspectRatio="xMidYMid meet">

<g transform="translate(0.000000,342.000000) scale(0.100000,-0.100000)"
fill="#000000" stroke="none">
<path d="M280 3361 c-22 -33 -40 -63 -40 -67 0 -7 -77 -162 -106 -214 -7 -14
-14 -32 -14 -41 0 -9 -7 -22 -15 -29 -8 -7 -15 -18 -15 -25 0 -6 -14 -32 -30
-57 -25 -38 -31 -59 -36 -124 -5 -82 6 -125 25 -94 6 8 13 44 16 80 8 76 55
167 92 176 33 9 70 -3 94 -29 51 -56 68 -69 129 -99 47 -24 80 -33 120 -35 31
0 77 -4 102 -8 41 -6 51 -4 90 23 24 17 58 47 77 66 19 20 42 36 52 36 11 0
19 5 19 10 0 6 5 10 11 10 6 0 29 18 51 40 23 22 50 42 62 45 11 2 33 6 48 10
18 3 37 20 53 45 14 22 33 40 43 40 22 1 45 34 61 89 15 53 30 69 67 75 16 2
75 12 131 22 78 13 108 15 125 6 13 -6 46 -13 75 -17 43 -5 59 -12 95 -48 33
-31 57 -45 98 -55 74 -17 109 -55 155 -167 20 -49 45 -101 54 -115 10 -14 26
-43 37 -65 10 -22 26 -46 36 -53 9 -7 27 -42 38 -79 16 -53 18 -69 8 -81 -11
-13 -9 -14 20 -10 18 2 35 0 39 -5 3 -5 9 -4 13 4 6 9 18 3 44 -23 l36 -36 0
392 0 391 -31 38 -30 37 -929 0 -929 0 -41 -59z"/>
<path d="M2222 2383 c-1 -21 2 -45 8 -53 7 -11 10 0 10 38 0 59 -15 72 -18 15z"/>
<path d="M2217 2265 c-22 -45 -21 -51 3 -82 l20 -26 0 72 c0 39 -1 71 -3 71
-2 0 -11 -16 -20 -35z"/>
<path d="M1370 2149 c-29 -13 -39 -14 -149 -29 -91 -12 -115 -24 -177 -85 -62
-61 -79 -105 -39 -105 14 0 25 -21 25 -51 0 -36 41 -116 66 -129 13 -8 24 -19
24 -26 0 -47 189 -75 250 -37 30 19 30 19 11 40 -20 21 -20 21 2 27 12 3 35 6
51 6 29 0 50 5 157 41 31 11 70 19 86 19 58 0 133 40 133 71 0 10 -58 29 -91
29 -15 0 -40 5 -56 11 -16 6 -92 11 -182 10 -135 0 -176 5 -200 25 -7 7 74 73
116 95 58 30 80 55 67 77 -13 20 -59 25 -94 11z"/>
<path d="M276 1984 c-61 -29 -86 -52 -86 -75 0 -23 20 -28 142 -32 99 -4 128
-14 128 -46 0 -9 -11 -23 -23 -32 -24 -17 -130 -50 -219 -69 -73 -14 -102 -45
-86 -91 9 -27 40 -54 49 -44 3 2 20 7 38 10 19 3 42 10 51 15 14 7 24 3 44
-17 25 -24 30 -26 97 -20 68 6 72 5 96 -21 14 -15 29 -26 33 -25 4 1 28 3 53
4 26 2 47 5 47 9 0 3 12 13 28 22 80 47 116 113 113 208 -1 36 -6 69 -11 74
-6 6 -10 19 -10 31 0 16 2 17 10 5 7 -10 13 -11 18 -5 4 6 24 12 46 14 21 1
47 11 57 20 19 17 19 18 1 34 -29 26 -90 30 -114 7 -54 -50 -113 -56 -132 -13
-8 18 -22 21 -108 26 -54 3 -104 9 -111 15 -7 5 -32 12 -57 15 -35 4 -56 0
-94 -19z"/>
<path d="M1200 1486 c-19 -5 -42 -19 -51 -30 -13 -16 -27 -19 -92 -17 -42 1
-77 -2 -77 -6 0 -17 17 -31 52 -42 20 -7 38 -16 40 -21 2 -4 19 -10 38 -13 58
-8 70 -17 70 -49 0 -28 -2 -30 -27 -23 -16 4 -51 9 -78 12 -43 4 -59 0 -109
-27 -52 -29 -61 -31 -82 -19 -13 7 -24 18 -24 25 0 15 -37 29 -65 25 -11 -2
-33 -14 -48 -27 -16 -14 -46 -32 -66 -40 -35 -15 -37 -14 -58 11 -18 20 -23
39 -23 79 0 61 -11 76 -59 76 -43 0 -53 -6 -69 -43 -13 -30 -17 -32 -74 -42
-45 -7 -63 -36 -74 -113 -3 -29 -10 -50 -14 -47 -7 4 -10 -11 -27 -110 -2 -16
-9 -34 -14 -39 -5 -6 -9 -20 -9 -32 0 -12 -6 -25 -12 -27 -10 -4 -10 -8 -2
-14 7 -4 11 -27 11 -50 -1 -26 5 -48 15 -60 11 -12 17 -35 16 -64 -1 -81 26
-125 95 -149 35 -13 58 -41 62 -77 2 -21 23 -73 29 -73 2 0 25 20 50 45 26 25
52 45 59 45 7 0 24 11 39 25 15 14 34 25 42 25 8 0 18 5 21 10 10 16 65 12 65
-5 0 -10 10 -15 29 -15 33 0 49 -15 57 -57 5 -24 13 -32 38 -38 100 -22 189
-12 227 26 10 10 23 19 27 19 5 0 15 12 23 26 12 24 12 28 -9 44 -12 10 -22
27 -22 38 0 40 26 47 163 47 121 0 130 2 147 23 10 12 26 22 36 22 22 0 84
-41 84 -56 0 -17 58 -64 80 -64 21 0 21 -1 22 103 0 53 2 57 23 57 29 0 50 48
48 109 -2 55 -17 85 -52 102 -30 15 -91 76 -92 93 -1 6 -2 22 -2 36 -1 16 -11
29 -30 38 -15 8 -32 25 -37 38 -5 13 -14 24 -19 24 -9 0 -29 45 -30 70 -2 54
-10 99 -19 117 -6 11 -9 23 -6 26 3 2 -9 11 -25 18 -17 8 -31 18 -31 22 0 5
-18 6 -39 2 -24 -4 -41 -2 -46 4 -3 6 -10 9 -15 6 -5 -3 -18 -2 -27 3 -11 5
-32 5 -53 -2z m-145 -356 c3 -5 38 -10 77 -10 64 0 74 -3 107 -31 75 -63 83
-69 90 -69 3 0 13 -9 21 -20 8 -11 23 -20 33 -20 10 0 31 -9 46 -19 14 -10 44
-24 67 -30 43 -11 73 -39 92 -83 11 -26 10 -28 -13 -28 -13 0 -27 5 -30 10 -4
6 -11 8 -16 5 -5 -4 -9 -2 -9 4 0 6 -15 14 -32 18 -38 10 -215 8 -247 -2 -64
-20 -221 78 -221 138 0 24 -27 84 -52 114 -5 7 -7 17 -3 23 8 13 82 13 90 0z
m-265 -151 c19 -22 45 -45 58 -50 35 -13 26 -51 -13 -59 -27 -6 -54 -24 -107
-73 -30 -28 -98 -27 -126 1 -12 12 -22 26 -22 31 0 16 41 81 51 81 5 0 9 5 9
10 0 6 8 18 18 28 9 11 26 31 36 45 27 38 56 34 96 -14z"/>
<path d="M487 264 c-7 -7 3 -35 19 -51 23 -23 26 -13 5 16 -11 15 -18 31 -14
35 3 3 4 6 1 6 -2 0 -7 -3 -11 -6z"/>
<path d="M864 98 c-3 -5 -22 -15 -42 -24 -27 -11 -42 -13 -54 -5 -26 16 -47
13 -47 -6 1 -10 -2 -28 -6 -40 l-7 -23 326 0 c223 0 326 3 326 11 0 5 -5 7
-11 3 -9 -5 -10 1 -5 20 7 28 9 26 -59 31 -16 1 -41 5 -55 10 -14 4 -38 7 -55
7 -16 -1 -48 4 -70 10 -47 13 -234 18 -241 6z"/>
</g>
</svg>
